# xmcd CD database file
#
# Track frame offsets:
#	150
#	17307
#	35974
#	57586
#	75909
#	91999
#	116402
#	135570
#	152883
#	175476
#	193796
#	215618
#
# Disc length: 3141 seconds
#
# Revision: 0
# Processed by: cddbd v1.5.1PL0 Copyright (c) Steve Scherf et al.
# Submitted via: CDex 1.51
#
DISCID=a00c430c
DTITLE=Various Artist - After Hours Sax [CD2]
DYEAR=2004
DGENRE=Jazz
TTITLE0=I Will Always Love You
TTITLE1=Everything I Do
TTITLE2=Wind Beneath My Wings
TTITLE3=It Had to Be You
TTITLE4=Unchained Melody
TTITLE5=Power of Love
TTITLE6=Careless Whisper
TTITLE7=Have I Told You I Love You
TTITLE8=Me and Mrs. Jones
TTITLE9=And I Love Her
TTITLE10=Baby I Love Your Ways
TTITLE11=No One Can Break My Heart
EXTD=YEAR: 2004
EXTT0=
EXTT1=
EXTT2=
EXTT3=
EXTT4=
EXTT5=
EXTT6=
EXTT7=
EXTT8=
EXTT9=
EXTT10=
EXTT11=
PLAYORDER=
